<?xml version="1.0" standalone="no"?>
<!DOCTYPE svg PUBLIC "-//W3C//DTD SVG 20010904//EN"
 "http://www.w3.org/TR/2001/REC-SVG-20010904/DTD/svg10.dtd">
<svg version="1.0" xmlns="http://www.w3.org/2000/svg"
 width="271.000000pt" height="271.000000pt" viewBox="0 0 271.000000 271.000000"
 preserveAspectRatio="xMidYMid meet">
<metadata>
Created by potrace 1.11, written by Peter Selinger 2001-2013
</metadata>
<g transform="translate(0.000000,271.000000) scale(0.100000,-0.100000)"
fill="#000000" stroke="none">
<path d="M90 1350 l0 -1255 1255 0 1255 0 0 1255 0 1255 -1255 0 -1255 0 0
-1255z m2433 1181 c4 0 7 -532 7 -1180 0 -934 -3 -1180 -12 -1183 -7 -2 -539
-4 -1183 -4 l-1170 1 -3 1185 -2 1185 1177 -1 c648 -1 1181 -2 1186 -3z"/>
<path d="M1310 2209 c-53 -67 -122 -210 -149 -309 -69 -258 -30 -551 104 -765
24 -38 55 -81 69 -94 30 -29 24 -34 100 80 63 93 112 218 131 329 14 81 16 99
16 190 0 220 -73 440 -195 584 l-33 40 -43 -55z m77 -116 c153 -249 160 -619
16 -882 -40 -73 -47 -77 -70 -44 -33 46 -60 105 -87 189 -34 106 -40 149 -40
279 -1 124 5 171 32 266 24 82 101 239 117 239 2 0 16 -21 32 -47z"/>
<path d="M524 1732 c9 -98 15 -127 41 -205 52 -154 194 -333 335 -425 78 -51
208 -103 263 -105 38 -2 40 -1 40 28 0 108 -33 230 -95 345 -39 74 -124 186
-170 225 -127 109 -261 177 -392 199 l-29 5 7 -67z m241 -101 c80 -45 212
-180 262 -266 39 -67 83 -183 96 -252 9 -44 -2 -43 -115 15 -203 103 -376 334
-404 538 l-6 44 54 -22 c29 -12 80 -38 113 -57z"/>
<path d="M2113 1785 c-265 -72 -483 -278 -572 -542 -24 -70 -29 -96 -37 -185
-7 -79 -7 -79 90 -54 195 51 389 212 499 416 58 107 97 268 88 368 -1 14 -2
14 -68 -3z m-9 -107 c-36 -209 -173 -410 -357 -525 -64 -40 -155 -78 -165 -69
-3 4 2 37 11 74 62 235 228 430 446 523 36 16 67 29 68 29 1 0 0 -15 -3 -32z"/>
<path d="M635 1068 c-102 -12 -227 -56 -290 -104 -19 -15 -19 -17 24 -55 117
-105 284 -160 466 -155 127 4 211 27 307 83 l61 36 -44 39 c-87 77 -229 140
-342 153 -98 11 -112 11 -182 3z m255 -93 c61 -19 180 -75 180 -85 0 -8 -42
-28 -85 -42 -89 -27 -221 -29 -326 -4 -77 19 -190 72 -196 93 -4 11 66 39 123
49 16 3 31 7 33 10 11 10 221 -5 271 -21z"/>
<path d="M1907 1068 c-137 -13 -274 -71 -364 -152 l-48 -43 50 -32 c179 -114
463 -117 670 -8 68 36 145 98 145 117 0 16 -101 69 -172 91 -83 26 -192 36
-281 27z m216 -85 c55 -13 117 -38 117 -47 0 -17 -168 -90 -232 -102 -66 -11
-172 -11 -237 1 -76 15 -153 44 -146 55 11 18 157 80 220 94 85 18 196 18 278
-1z"/>
<path d="M1322 658 l3 -143 33 -1 32 -1 0 143 0 144 -35 0 -36 0 3 -142z"/>
<path d="M1095 775 c-56 -16 -95 -38 -131 -73 -35 -35 -71 -98 -61 -108 3 -4
30 -6 58 -5 94 2 201 68 244 152 9 17 14 33 11 36 -10 11 -83 10 -121 -2z m7
-74 c-35 -30 -112 -65 -112 -51 0 17 106 79 135 79 6 0 -5 -13 -23 -28z"/>
<path d="M1497 781 c-16 -6 -15 -11 11 -52 53 -83 140 -135 239 -142 61 -5 68
3 44 50 -24 49 -81 99 -137 124 -44 20 -127 30 -157 20z m159 -82 c17 -10 38
-27 48 -38 18 -19 17 -20 -18 -9 -20 7 -54 27 -74 45 -33 30 -34 33 -12 27 14
-3 39 -15 56 -25z"/>
</g>
</svg>
